<svg width="26" height="26" viewBox="0 0 26 26" fill="none" xmlns="http://www.w3.org/2000/svg">
<path d="M19.5 0C17.7052 0 16.0802 0.878604 14.9041 2.29928L13.2876 4.24242C13.1288 4.43423 12.872 4.43423 12.7132 4.24242C12.7132 4.24242 11.1 2.29487 11.0967 2.29928C9.91981 0.878604 8.29481 0 6.5 0C2.90997 0 0 3.51392 0 7.84906C0 9.48657 0.416 11.0063 1.12653 12.2642C1.12653 12.2642 1.42472 12.8352 1.77734 13.2605C2.12997 13.6858 11.8511 25.4251 11.8511 25.4251C12.1684 25.8082 12.5844 26 13 26C13.4156 26 13.8316 25.8082 14.1489 25.4251C14.1489 25.4251 23.8704 13.6858 24.2227 13.2605C24.5749 12.8352 24.8735 12.2642 24.8735 12.2642C25.584 11.0063 26 9.48657 26 7.84906C26 3.51392 23.09 0 19.5 0ZM23.1562 8.33962C22.9316 8.33962 22.75 8.12034 22.75 7.84906C22.75 5.68174 21.2948 3.92453 19.5 3.92453C19.2753 3.92453 19.0938 3.70525 19.0938 3.43396C19.0938 3.16268 19.2753 2.9434 19.5 2.9434C21.7433 2.9434 23.5625 5.14015 23.5625 7.84906C23.5625 8.12034 23.3809 8.33962 23.1562 8.33962Z" fill="#1E1B1B"/>
</svg>
